<svg width="32" height="32" viewBox="0 0 32 32" fill="none" xmlns="http://www.w3.org/2000/svg">
  <style>
    /* El color se adapta automáticamente al tema del sistema */
    path { fill: #2D3436; } 
    @media (prefers-color-scheme: dark) {
      path { fill: #FFFFFF; }
    }
  </style>
  <path d="M16 11.656L20.344 7.312C21.282 6.374 22.818 6.374 23.756 7.312L24.688 8.244C25.626 9.182 25.626 10.718 24.688 11.656L20.344 16L24.688 20.344C25.626 21.282 25.626 22.818 24.688 23.756L23.756 24.688C22.818 25.626 21.282 25.626 20.344 24.688L16 20.344L11.656 24.688C10.718 25.626 9.182 25.626 8.244 24.688L7.312 23.756C6.374 22.818 6.374 21.282 7.312 20.344L11.656 16L7.312 11.656C6.374 10.718 6.374 9.182 7.312 8.244L8.244 7.312C9.182 6.374 10.718 6.374 11.656 7.312L16 11.656Z" />
</svg>
